<?xml version="1.0" encoding="utf-8"?>
<!-- Generator: Adobe Illustrator 16.0.0, SVG Export Plug-In . SVG Version: 6.00 Build 0)  -->
<!DOCTYPE svg PUBLIC "-//W3C//DTD SVG 1.1//EN" "http://www.w3.org/Graphics/SVG/1.1/DTD/svg11.dtd">
<svg version="1.1" id="Layer_3" xmlns="http://www.w3.org/2000/svg" xmlns:xlink="http://www.w3.org/1999/xlink" x="0px" y="0px"
	 width="74px" height="74px" viewBox="5 5 74 74" enable-background="new 5 5 74 74" xml:space="preserve">
<path fill="#F2F2F2" d="M42,6C22.119,6,6,22.119,6,42c0,19.882,16.119,36,36,36c19.882,0,36-16.118,36-36C78,22.119,61.882,6,42,6z
	 M54.29,16.157c2.651,0,4.801,2.148,4.801,4.8c0,2.65-2.147,4.8-4.801,4.8c-2.649,0-4.8-2.15-4.8-4.8
	C49.49,18.305,51.641,16.157,54.29,16.157z M17.714,46.8c-2.652,0-4.8-2.147-4.8-4.8c0-2.652,2.148-4.8,4.8-4.8
	c2.65,0,4.8,2.148,4.8,4.8C22.515,44.652,20.364,46.8,17.714,46.8z M21.975,47.009c1.411-1.222,2.301-3.026,2.301-5.04
	c0-2.006-0.885-3.809-2.29-5.03c1.289-5.107,4.481-9.454,8.777-12.247l3.245,5.621C30.286,32.863,27.84,37.145,27.84,42
	c0,4.813,2.402,9.063,6.072,11.621l-3.247,5.625C26.405,56.439,23.244,52.1,21.975,47.009z M54.29,67.848
	c-2.649,0-4.8-2.146-4.8-4.8c0-2.651,2.15-4.8,4.8-4.8c2.651,0,4.801,2.148,4.801,4.8C59.091,65.7,56.941,67.848,54.29,67.848z
	 M56.453,56.73c-0.691-0.246-1.438-0.379-2.213-0.379c-3.286,0-6.016,2.373-6.566,5.498c-1.803,0.515-3.706,0.791-5.674,0.791
	c-3.362,0-6.533-0.811-9.338-2.234l3.247-5.62c1.843,0.881,3.91,1.375,6.091,1.375c7.434,0,13.523-5.728,14.109-13.009h6.496
	C62.316,48.463,60.016,53.236,56.453,56.73z M56.109,40.841C55.52,33.564,49.432,27.84,42,27.84c-2.139,0-4.167,0.478-5.983,1.327
	l-3.25-5.625c2.779-1.395,5.914-2.182,9.233-2.182c1.902,0,3.746,0.257,5.498,0.742c0.553,3.127,3.283,5.503,6.568,5.503
	c0.813,0,1.59-0.144,2.31-0.411c3.604,3.497,5.933,8.299,6.229,13.646L56.109,40.841L56.109,40.841z"/>
</svg>
